<svg width="64" height="64" viewBox="0 0 64 64" fill="none" xmlns="http://www.w3.org/2000/svg">
  <path d="M0 6C0 2.68629 2.68629 0 6 0H58C61.3137 0 64 2.68629 64 6V58C64 61.3137 61.3137 64 58 64H6C2.68629 64 0 61.3137 0 58V6Z" fill="#FF6B7E"/>
  <path d="M14.643 48.2321L17.4634 40.476C17.7134 39.7884 18.5929 39.5933 19.1103 40.1106L24.7511 45.7515C25.3007 46.3011 25.0406 47.2402 24.2865 47.4287L15.8253 49.544C15.0479 49.7384 14.3691 48.9852 14.643 48.2321Z" fill="#FFCC24"/>
  <path d="M20.8284 22.0001H27.5192C27.8271 22.0001 28.1223 21.8778 28.34 21.6601C31.3919 18.6082 35.1994 16.4213 39.3733 15.3229L45.3687 13.7452C48.3311 12.9656 51.0345 15.669 50.2549 18.6314L48.6772 24.6268C47.5788 28.8007 45.3919 32.6082 42.34 35.6601C42.1223 35.8778 42 36.173 42 36.4809V43.1716C42 43.7021 41.7893 44.2108 41.4142 44.5858L36.9425 49.0576C35.7566 50.2434 33.7257 49.531 33.5405 47.8643L33.1584 44.4254C33.0816 43.7339 32.3396 43.3303 31.7173 43.6414L30.2894 44.3554C29.5194 44.7404 28.5894 44.5895 27.9807 43.9808L20.0193 36.0194C19.4106 35.4106 19.2597 34.4807 19.6447 33.7107L20.3587 32.2828C20.6698 31.6605 20.2662 30.9185 19.5747 30.8417L16.1358 30.4596C14.4691 30.2744 13.7566 28.2434 14.9425 27.0576L19.4142 22.5858C19.7893 22.2108 20.298 22.0001 20.8284 22.0001Z" fill="white"/>
  <path d="M43 26C43 28.2091 41.2091 30 39 30C36.7909 30 35 28.2091 35 26C35 23.7909 36.7909 22 39 22C41.2091 22 43 23.7909 43 26Z" fill="#FF6B7E"/>
</svg>
