<svg width="64" height="64" viewBox="0 0 64 64" fill="none" xmlns="http://www.w3.org/2000/svg">
<path d="M0 6C0 2.68629 2.68629 0 6 0H58C61.3137 0 64 2.68629 64 6V58C64 61.3137 61.3137 64 58 64H6C2.68629 64 0 61.3137 0 58V6Z" fill="#FFAA1D"/>
<path d="M24 15C24 14.4477 24.4477 14 25 14H51C51.5523 14 52 14.4477 52 15V21C52 21.5523 51.5523 22 51 22H25C24.4477 22 24 21.5523 24 21V15Z" fill="white"/>
<path d="M16 36C18.2091 36 20 34.2091 20 32C20 29.7909 18.2091 28 16 28C13.7909 28 12 29.7909 12 32C12 34.2091 13.7909 36 16 36Z" fill="white"/>
<path d="M25 28C24.4477 28 24 28.4477 24 29V35C24 35.5523 24.4477 36 25 36H51C51.5523 36 52 35.5523 52 35V29C52 28.4477 51.5523 28 51 28H25Z" fill="white"/>
<path d="M16 22C18.2091 22 20 20.2091 20 18C20 15.7909 18.2091 14 16 14C13.7909 14 12 15.7909 12 18C12 20.2091 13.7909 22 16 22Z" fill="white"/>
<path d="M24 43C24 42.4477 24.4477 42 25 42H51C51.5523 42 52 42.4477 52 43V49C52 49.5523 51.5523 50 51 50H25C24.4477 50 24 49.5523 24 49V43Z" fill="white"/>
<path d="M16 50C18.2091 50 20 48.2091 20 46C20 43.7909 18.2091 42 16 42C13.7909 42 12 43.7909 12 46C12 48.2091 13.7909 50 16 50Z" fill="white"/>
</svg>

