<svg width="64" height="64" viewBox="0 0 64 64" fill="none" xmlns="http://www.w3.org/2000/svg">
<path d="M0 6C0 2.68629 2.68629 0 6 0H58C61.3137 0 64 2.68629 64 6V58C64 61.3137 61.3137 64 58 64H6C2.68629 64 0 61.3137 0 58V6Z" fill="#4B91FA"/>
<path d="M13.1926 41.8021L20.4481 37.022C21.113 36.5839 21.9983 37.0608 21.9983 37.857V48.0148C21.9983 48.8362 21.0628 49.3073 20.4028 48.8182L13.1473 43.4405C12.5892 43.0269 12.6125 42.1843 13.1926 41.8021Z" fill="#79B7FF"/>
<path d="M21.9983 46.0007C21.446 46.0007 20.9983 45.553 20.9983 45.0007V41.0007C20.9983 40.4484 21.446 40.0007 21.9983 40.0007L28.9983 40.0007C29.5506 40.0007 29.9983 40.4484 29.9983 41.0007V45.0007C29.9983 45.553 29.5506 46.0007 28.9983 46.0007H21.9983Z" fill="#79B7FF"/>
<path d="M49.8058 19.802L42.5503 15.0218C41.8854 14.5838 41.0001 15.0607 41.0001 15.8569V26.0147C41.0001 26.8361 41.9357 27.3072 42.5956 26.8181L49.8511 21.4404C50.4092 21.0268 50.3859 20.1841 49.8058 19.802Z" fill="#79B7FF"/>
<path d="M41.0001 24.0006C41.5524 24.0006 42.0001 23.5529 42.0001 23.0006V19.0006C42.0001 18.4483 41.5524 18.0006 41.0001 18.0006L34.0001 18.0006C33.4479 18.0006 33.0001 18.4483 33.0001 19.0006V23.0006C33.0001 23.5529 33.4479 24.0006 34.0001 24.0006H41.0001Z" fill="#79B7FF"/>
<path d="M27.3639 23.5184C26.9959 24.3745 26.4687 25.1531 25.8104 25.8127C25.1508 26.471 24.3723 26.9981 23.5162 27.3661C21.9151 28.0699 20.1183 28.1921 18.4367 27.7114C16.7551 27.2307 15.2943 26.1774 14.3071 24.7337C13.3199 23.29 12.8682 21.5466 13.0303 19.8052C13.1924 18.0637 13.958 16.4337 15.1948 15.1969C16.4315 13.9602 18.0615 13.1946 19.803 13.0325C21.5444 12.8704 23.2878 13.3221 24.7315 14.3093C26.1752 15.2965 27.2285 16.7573 27.7092 18.4389C28.1899 20.1205 28.0678 21.9173 27.3639 23.5184Z" fill="white"/>
<path d="M35.998 48.0002C35.998 49.1048 36.8935 50.0002 37.998 50.0002H47.9981C49.1026 50.0002 49.9981 49.1048 49.998 48.0002V38.0002C49.998 36.8957 49.1026 36.0002 47.998 36.0002H37.998C36.8935 36.0002 35.998 36.8957 35.998 38.0002V48.0002Z" fill="white"/>
</svg>

