<svg width="64" height="64" viewBox="0 0 64 64" fill="none" xmlns="http://www.w3.org/2000/svg">
<path d="M0 6C0 2.68629 2.68629 0 6 0H58C61.3137 0 64 2.68629 64 6V58C64 61.3137 61.3137 64 58 64H6C2.68629 64 0 61.3137 0 58V6Z" fill="#4B91FA"/>
<path d="M11.5765 33C11.2193 32.3812 11.2193 31.6188 11.5765 31L20.9218 14.8135C21.2791 14.1947 21.9394 13.8135 22.6539 13.8135L41.3445 13.8135C42.059 13.8135 42.7193 14.1947 43.0765 14.8135L52.4218 31C52.7791 31.6188 52.7791 32.3812 52.4218 33L43.0765 49.1865C42.7193 49.8053 42.059 50.1865 41.3445 50.1865H22.6539C21.9394 50.1865 21.2791 49.8053 20.9218 49.1865L11.5765 33Z" fill="white"/>
<path d="M38 32C38 35.3137 35.3137 38 32 38C28.6863 38 26 35.3137 26 32C26 28.6863 28.6863 26 32 26C35.3137 26 38 28.6863 38 32Z" fill="#4B91FA"/>
</svg>

